<mxfile host="Electron" modified="2024-05-16T09:33:08.885Z" agent="Mozilla/5.0 (Windows NT 10.0; Win64; x64) AppleWebKit/537.36 (KHTML, like Gecko) draw.io/23.0.2 Chrome/120.0.6099.109 Electron/28.1.0 Safari/537.36" etag="i5Wd4JRwCgwvUhZwda1t" version="23.0.2" type="device">
  <diagram name="Сторінка-1" id="S0tByGaFXRuuO4umK6PD">
    <mxGraphModel dx="1050" dy="621" grid="1" gridSize="10" guides="1" tooltips="1" connect="1" arrows="1" fold="1" page="1" pageScale="1" pageWidth="827" pageHeight="1169" math="0" shadow="0">
      <root>
        <mxCell id="0" />
        <mxCell id="1" parent="0" />
        <mxCell id="Yvt8ybKCOAY-sS4ezBiP-1" value="UserProfileModel" style="swimlane;fontStyle=1;align=center;verticalAlign=top;childLayout=stackLayout;horizontal=1;startSize=26;horizontalStack=0;resizeParent=1;resizeParentMax=0;resizeLast=0;collapsible=1;marginBottom=0;whiteSpace=wrap;html=1;" vertex="1" parent="1">
          <mxGeometry x="80" y="40" width="210" height="210" as="geometry" />
        </mxCell>
        <mxCell id="Yvt8ybKCOAY-sS4ezBiP-2" value="+ first_name: str&lt;br&gt;+ last_name: str&lt;br&gt;+ full_name: str (calculated)&lt;br&gt;+ email: str[email]&lt;br&gt;+ birthday: date&lt;br&gt;+ role: enum(moderator, admin)&lt;br&gt;+ photo_posted: int (calculated)&lt;br&gt;+ comments: int (calculated)&lt;br&gt;+ created: datetime" style="text;strokeColor=none;fillColor=none;align=left;verticalAlign=top;spacingLeft=4;spacingRight=4;overflow=hidden;rotatable=0;points=[[0,0.5],[1,0.5]];portConstraint=eastwest;whiteSpace=wrap;html=1;" vertex="1" parent="Yvt8ybKCOAY-sS4ezBiP-1">
          <mxGeometry y="26" width="210" height="184" as="geometry" />
        </mxCell>
        <mxCell id="Yvt8ybKCOAY-sS4ezBiP-5" value="UserGeneralModel" style="swimlane;fontStyle=1;align=center;verticalAlign=top;childLayout=stackLayout;horizontal=1;startSize=26;horizontalStack=0;resizeParent=1;resizeParentMax=0;resizeLast=0;collapsible=1;marginBottom=0;whiteSpace=wrap;html=1;" vertex="1" parent="1">
          <mxGeometry x="80" y="290" width="210" height="70" as="geometry" />
        </mxCell>
        <mxCell id="Yvt8ybKCOAY-sS4ezBiP-6" value="+ full_name: str (calculated)&lt;br&gt;" style="text;strokeColor=none;fillColor=none;align=left;verticalAlign=top;spacingLeft=4;spacingRight=4;overflow=hidden;rotatable=0;points=[[0,0.5],[1,0.5]];portConstraint=eastwest;whiteSpace=wrap;html=1;" vertex="1" parent="Yvt8ybKCOAY-sS4ezBiP-5">
          <mxGeometry y="26" width="210" height="44" as="geometry" />
        </mxCell>
        <mxCell id="Yvt8ybKCOAY-sS4ezBiP-8" value="UserCommentModel" style="swimlane;fontStyle=1;align=center;verticalAlign=top;childLayout=stackLayout;horizontal=1;startSize=26;horizontalStack=0;resizeParent=1;resizeParentMax=0;resizeLast=0;collapsible=1;marginBottom=0;whiteSpace=wrap;html=1;" vertex="1" parent="1">
          <mxGeometry x="80" y="400" width="210" height="80" as="geometry" />
        </mxCell>
        <mxCell id="Yvt8ybKCOAY-sS4ezBiP-9" value="+ full_name: str (calculated)&lt;br&gt;+ role: enum(moderator, admin)&lt;br&gt;" style="text;strokeColor=none;fillColor=none;align=left;verticalAlign=top;spacingLeft=4;spacingRight=4;overflow=hidden;rotatable=0;points=[[0,0.5],[1,0.5]];portConstraint=eastwest;whiteSpace=wrap;html=1;" vertex="1" parent="Yvt8ybKCOAY-sS4ezBiP-8">
          <mxGeometry y="26" width="210" height="54" as="geometry" />
        </mxCell>
      </root>
    </mxGraphModel>
  </diagram>
</mxfile>
